<svg width="371" height="82" viewBox="0 0 371 82" fill="none" xmlns="http://www.w3.org/2000/svg">
<g clip-path="url(#clip0_24_106)">
<mask id="mask0_24_106" style="mask-type:alpha" maskUnits="userSpaceOnUse" x="0" y="0" width="371" height="83">
<path d="M0 0.967773H370.64V82.9678H0V0.967773Z" fill="#0093A1"/>
</mask>
<g mask="url(#mask0_24_106)">
<path fill-rule="evenodd" clip-rule="evenodd" d="M0 53.8922L54.5131 0.967773V18.7456C54.5131 19.7738 54.0925 20.7598 53.3437 21.4867L9.98256 63.5841L0 53.8922ZM16.679 70.0852L54.5131 33.3536V51.1315C54.5131 52.1596 54.0925 53.1456 53.3437 53.8725L36.6446 70.0852L39.9308 73.2757L49.9136 82.9678H29.9481L26.6616 79.7771L16.679 70.0852ZM360.948 53.8047L370.64 60.4901C366.089 66.3241 358.99 70.0766 351.015 70.0766C337.279 70.0766 326.143 58.9477 326.143 45.2194C326.143 31.4911 337.279 20.3624 351.015 20.3624C358.99 20.3624 366.089 24.1148 370.64 29.9489L360.948 36.6343C358.562 33.7351 354.995 31.8889 351.015 31.8889C343.847 31.8889 338.016 37.8688 338.016 45.2194C338.016 52.57 343.847 58.5501 351.015 58.5501C354.995 58.5501 358.562 56.7039 360.948 53.8047ZM98.2016 40.4965H118.253L114.422 51.4338H98.2016V70.0764H86.4974V20.3626H125.304L121.474 31.2997H98.2016V40.4965ZM263.783 20.3626H301.822V31.2997H288.655V70.0764H276.95V31.2997H263.783V20.3626ZM306.878 70.0766H318.857V20.3626H306.878V70.0766ZM236.63 51.3894L242.556 33.3592L248.481 51.3894H236.63ZM235.094 20.3626L217.684 70.0764H230.486L233.026 62.3267H252.086L254.626 70.0764H267.427L250.017 20.3626H235.094ZM201.299 20.3626H213.004V70.0764H204.225L184.474 43.089V70.0764H172.77V20.3626H181.548L201.299 47.3501V20.3626ZM137.292 51.3894L143.218 33.3592L149.144 51.3894H137.292ZM135.757 20.3626L118.346 70.0764H131.148L133.688 62.3267H152.748L155.288 70.0764H168.09L150.679 20.3626H135.757Z" fill="#0093A1"/>
</g>
</g>
<defs>
<clipPath id="clip0_24_106">
<rect width="370.64" height="81.098" fill="white"/>
</clipPath>
</defs>
</svg>
