<svg width="194" height="35" viewBox="0 0 194 35" fill="none" xmlns="http://www.w3.org/2000/svg">
<mask id="mask0_24_52" style="mask-type:alpha" maskUnits="userSpaceOnUse" x="0" y="0" width="194" height="35">
<path d="M0.050293 0H193.825V34.3616H0.050293V0Z" fill="white"/>
</mask>
<g mask="url(#mask0_24_52)">
<path fill-rule="evenodd" clip-rule="evenodd" d="M5.89697 23.1607L34.397 0.983032V8.43272C34.397 8.86358 34.1771 9.27676 33.7857 9.58139L11.116 27.2221L5.89697 23.1607ZM14.617 29.9463L34.397 14.5541V22.0039C34.397 22.4347 34.1771 22.8478 33.7857 23.1525L25.0552 29.9463L26.7733 31.2833L31.9923 35.3447H21.5542L19.836 34.0076L14.617 29.9463ZM194.605 23.1241L199.672 25.9255C197.292 28.3702 193.581 29.9427 189.411 29.9427C182.23 29.9427 176.408 25.2792 176.408 19.5264C176.408 13.7737 182.23 9.11024 189.411 9.11024C193.581 9.11024 197.292 10.6827 199.672 13.1274L194.605 15.9289C193.357 14.714 191.493 13.9404 189.411 13.9404C185.664 13.9404 182.615 16.4462 182.615 19.5264C182.615 22.6067 185.664 25.1126 189.411 25.1126C191.493 25.1126 193.357 24.339 194.605 23.1241ZM57.2379 17.5473H67.7209L65.7183 22.1305H57.2379V29.9426H51.1188V9.11033H71.4073L69.4047 13.6935H57.2379V17.5473ZM143.806 9.11033H163.693V13.6935H156.809V29.9426H150.69V13.6935H143.806V9.11033ZM166.336 29.9427H172.599V9.11033H166.336V29.9427ZM129.61 22.1119L132.708 14.5565L135.806 22.1119H129.61ZM128.807 9.11033L119.704 29.9426H126.397L127.725 26.6952H137.69L139.018 29.9426H145.711L136.609 9.11033H128.807ZM111.139 9.11033H117.258V29.9426H112.668L102.342 18.6337V29.9426H96.2229V9.11033H100.812L111.139 20.4193V9.11033ZM77.6749 22.1119L80.7729 14.5565L83.8708 22.1119H77.6749ZM76.872 9.11033L67.7697 29.9426H74.4625L75.7903 26.6952H85.7555L87.0833 29.9426H93.7761L84.6739 9.11033H76.872Z" fill="#0093A1"/>
</g>
</svg>
